# xmcd
#
# Track frame offsets:
#	150
#	20569
#	33631
#	56440
#	71230
#	82678
#	108385
#	130295
#	155912
#	171945
#	188916
#	196510
#	218455
#	233016
#	249229
#	268912
#	284911
#
# Disc length: 4083 seconds
#
# Revision: 2
# Processed by: cddbd v1.5.2PL0 Copyright (c) Steve Scherf et al.
# Submitted via: EZCDDA 4.3.2
#
DISCID=f40ff111
DTITLE=Blackmore's Night - Beyond The Sunset - The Romantic Collection
DYEAR=1900
DGENRE=
TTITLE0=Once In A Million Years
TTITLE1=Be Mine Tonight
TTITLE2=Wish You Were Here
TTITLE3=Waiting Just For You
TTITLE4=Durch Den Wald Zum Bach Haus
TTITLE5=Ghost Of A Rose
TTITLE6=Spirit Of The Sea
TTITLE7=I Still Remember
TTITLE8=Castles And Dreams
TTITLE9=Beyond The Sunset
TTITLE10=Again Someday
TTITLE11=Diamonds And Rust
TTITLE12=Now And Then
TTITLE13=All Because Of You
TTITLE14=Christmas Eve
TTITLE15=Emanuel
TTITLE16=We Three Kings
EXTD=
EXTT0=
EXTT1=
EXTT2=
EXTT3=
EXTT4=
EXTT5=
EXTT6=
EXTT7=
EXTT8=
EXTT9=
EXTT10=
EXTT11=
EXTT12=
EXTT13=
EXTT14=
EXTT15=
EXTT16=
PLAYORDER=
